<?xml version="1.0" encoding="UTF-8" standalone="no"?>
<!DOCTYPE svg PUBLIC "-//W3C//DTD SVG 1.1//EN" "http://www.w3.org/Graphics/SVG/1.1/DTD/svg11.dtd">
<svg width="100%" height="100%" viewBox="0 0 1085 782" version="1.1" xmlns="http://www.w3.org/2000/svg" xmlns:xlink="http://www.w3.org/1999/xlink" xml:space="preserve" xmlns:serif="http://www.serif.com/" style="fill-rule:evenodd;clip-rule:evenodd;">
    <g transform="matrix(1,0,0,1,-1251.61,-26.089)">
        <g transform="matrix(-2.83464,0,0,2.83464,7449.9,3129.35)">
            <path d="M1905.33,-819.466L1905.3,-821.47L1817.91,-821.47C1817.76,-821.758 1817.65,-822.074 1817.61,-822.4L1817.47,-823.018C1816.32,-827.414 1812.35,-830.478 1807.8,-830.466L1805.79,-830.461L1804.3,-830.461L1804.3,-878.502L1810.8,-878.502L1810.8,-1028.47L1815.81,-1028.47L1815.81,-1067.47L1819.14,-1067.47L1822.54,-1084.47L1822.54,-1094.47L1906.81,-1094.47L1907.01,-1094.45C1907.13,-1094.42 1907.25,-1094.36 1907.35,-1094.29L1907.51,-1094.18L1907.63,-1094.03L1907.73,-1093.86C1907.77,-1093.73 1907.79,-1093.6 1907.81,-1093.47L1907.82,-1092.27L1907.88,-1092.09C1907.94,-1091.97 1908.01,-1091.86 1908.1,-1091.77L1908.25,-1091.65L1908.42,-1091.55L1908.61,-1091.5L1908.81,-1091.47L2081.82,-1091.47L2082.02,-1091.5L2082.21,-1091.55L2082.38,-1091.65L2082.53,-1091.77C2082.61,-1091.86 2082.68,-1091.97 2082.75,-1092.09L2082.8,-1092.27L2082.82,-1093.47C2082.84,-1093.6 2082.86,-1093.73 2082.9,-1093.86L2082.99,-1094.03L2083.11,-1094.18L2083.27,-1094.29C2083.38,-1094.36 2083.49,-1094.42 2083.62,-1094.45L2083.82,-1094.47L2168.09,-1094.47L2168.09,-1084.47L2171.49,-1067.47L2174.82,-1067.47L2174.82,-1028.47L2179.83,-1028.47L2179.83,-878.502L2186.33,-878.502L2186.33,-830.461L2184.84,-830.461L2182.83,-830.466C2178.28,-830.478 2174.31,-827.414 2173.15,-823.018L2173.02,-822.4C2172.97,-822.074 2172.87,-821.758 2172.71,-821.47L2085.32,-821.47L2085.32,-819.466L1996.32,-819.465L1996.32,-823.466L1994.3,-823.466L1994.31,-819.465L1905.33,-819.466Z" style="fill:none;fill-rule:nonzero;stroke:black;stroke-width:0.14px;"/>
        </g>
    </g>
</svg>
