<svg version="1.1" xmlns="http://www.w3.org/2000/svg" viewBox="-215.25451020448943 -3.951991350044648 428.776116819171 7.959141276122473" fill="none" stroke="black" stroke-width="0.6%" vector-effect="non-scaling-stroke">
    <path d="M -164.15332 1.54808 L -164.15332 -1.45185 L -162.5446 -1.45972 L -213.59948 -1.92664 C -213.45 -1.93 -213.26 -1.93 -213.02005 -1.93182 L -212.60034 -1.93494 C -209.7 -1.96 -209.54 -1.99 -210.31141 -1.97679 C -209.7 -1.96 -209.54 -1.99 -212.20569 -2.01526 L -213.38402 -2.02598 L -214.25451 -2.03394 L -175.26927 -2.21873 L -171.47184 -2.184 L -49.7729 -2.76085 L -46.84596 -2.73408 L -15.19748 -2.88409 L -13.25204 -2.8663 L 2.5298 -2.91353 L 10.64479 -2.95199 L 59.87691 -2.50174 L 59.97753 -2.5006 C 60.02 -2.5 60.04 -2.5 60.04632 -2.49817 L 60.05053 -2.49689 L 59.99891 -2.49567 L 59.91938 -2.49448 C 59.84 -2.49 59.74 -2.49 59.64963 -2.49255 L 58.68168 -2.48789 L 58.57066 -2.48687 C 58.51 -2.49 58.46 -2.49 58.43951 -2.48447 L 58.42976 -2.4832 L 58.44793 -2.48191 L 58.51835 -2.4807 L 58.61085 -2.47952 L 159.68655 -1.55514 L 159.82774 -1.55419 L 159.97932 -1.55337 L 160.15978 -1.55284 L 160.3448 -1.5525 C 160.46 -1.55 160.59 -1.55 160.733 -1.55256 L 160.90828 -1.55298 L 161.89377 -1.55749 C 162.01 -1.56 162.13 -1.56 162.25699 -1.55857 L 162.44752 -1.55874 L 162.63936 -1.55867 L 162.8221 -1.55824 C 162.94 -1.56 163.06 -1.56 163.15641 -1.55699 L 163.28949 -1.556 L 212.52161 -1.10575 L 204.40661 -1.06728 L 192.59747 -0.98373 L 194.54291 -0.96594 L 162.89444 -0.81592 L 165.82137 -0.78916 L 44.12243 -0.2123 L 47.91985 -0.17758 L 8.93461 0.00721 L 8.06412 -0.00075 L 6.8939 -0.01151 C 4.25 -0.04 -0.56 -0.05 -4.80539 -0.03458 L -5.38284 -0.03289 C -5.68 -0.03 -5.99 -0.03 -6.31865 -0.03097 L -57.37353 -0.49789 L -58.99977 -0.49018 L -110.99606 -0.9657 L -107.74925 -0.98109 L -108.92937 -0.99188 L -112.17034 -0.97643 L -164.15332 -1.45185" />
    <path d="M -213.59948 1.0733 L -213.59948 -1.92664" />
    <path d="M -164.15332 1.5255 L -213.59948 1.0733" />
    <path d="M -213.38402 -1.92903 L -213.38402 -2.02598" />
    <path d="M -214.25451 0.966 L -214.25451 -2.03394" />
    <path d="M -213.59948 0.97199 L -214.25451 0.966" />
    <path d="M 60.05053 -2.46635 L 60.05053 -2.49689" />
    <path d="M 59.99891 -2.46682 L 59.99891 -2.49567" />
    <path d="M 59.91938 -2.46755 L 59.91938 -2.49448" />
    <path d="M 59.64963 -2.47002 L 59.64963 -2.49255" />
    <path d="M 58.68168 -2.47887 L 58.68168 -2.48789" />
    <path d="M 58.57066 -2.48003 L 58.57066 -2.48687" />
    <path d="M 58.43951 -2.48251 L 58.43951 -2.48447" />
    <path d="M 212.52161 1.89419 L 212.52161 -1.10575" />
    <path d="M 204.40661 1.93265 L 204.40661 -1.06728" />
    <path d="M 212.52161 1.89419 L 204.40661 1.93265 L 194.54291 2.00244" />
    <path d="M 194.54291 2.034 L 194.54291 -0.96594" />
    <path d="M 194.54291 2.034 L 165.82137 2.17014" />
    <path d="M 165.82137 2.21078 L 165.82137 -0.78916" />
    <path d="M 165.82137 2.21078 L 47.91985 2.76963" />
    <path d="M 47.91985 2.82236 L 47.91985 -0.17758" />
    <path d="M 8.93461 3.00715 L 8.93461 0.00721" />
    <path d="M 47.91985 2.82236 L 8.93461 3.00715 L 8.06412 2.99919 L 6.8939 2.98843 L 6.8939 -0.01151" />
    <path d="M 8.06412 2.99919 L 8.06412 -0.00075" />
    <path d="M -4.80539 2.96536 L -4.80539 -0.03458" />
    <path d="M 6.8939 2.98843 C 4.25 2.96 -0.56 2.95 -4.80539 2.96536 L -5.38284 2.96704 C -5.68 2.97 -5.99 2.97 -6.31865 2.96896 L -57.37353 2.50205 L -58.99977 2.50975 L -110.99606 2.03424 L -110.99606 -0.9657" />
    <path d="M -5.38284 2.96704 L -5.38284 -0.03289" />
    <path d="M -6.31865 2.96896 L -6.31865 -0.03097" />
    <path d="M -57.37353 2.50205 L -57.37353 -0.49789" />
    <path d="M -58.99977 2.50975 L -58.99977 -0.49018" />
    <path d="M -108.92937 -0.97549 L -108.92937 -0.99188" />
    <path d="M -112.17034 2.0235 L -112.17034 -0.97643" />
    <path d="M -110.99606 2.0179 L -112.17034 2.0235 L -164.15332 1.54808" />
    <path d="M -212.20569 -1.9383 L -212.20569 -2.01526" />
</svg>