<svg version="1.1" xmlns="http://www.w3.org/2000/svg" viewBox="-215.25451020448943 -7.793118120988628 428.776116819171 15.730343767725365" fill="none" stroke="black" stroke-width="0.6%" vector-effect="non-scaling-stroke">
    <path d="M -164.15332 3.12527 L -164.15332 -2.87385 L -162.5446 -2.8944 L -213.59948 -4.11427 C -213.45 -4.12 -213.26 -4.12 -213.02005 -4.1278 L -212.60034 -4.13597 C -209.7 -4.2 -209.54 -4.28 -210.31141 -4.2453 C -209.7 -4.2 -209.54 -4.28 -212.20569 -4.3458 L -213.38402 -4.37381 L -214.25451 -4.39461 L -175.26927 -4.87739 L -171.47184 -4.78665 L -49.7729 -6.29374 L -46.84596 -6.2238 L -15.19748 -6.61573 L -13.25204 -6.56924 L 2.5298 -6.69262 L 10.64479 -6.79312 L 59.87691 -5.6168 L 59.97753 -5.61381 C 60.02 -5.61 60.04 -5.61 60.04632 -5.60745 L 60.05053 -5.60412 L 59.99891 -5.60093 L 59.91938 -5.59783 C 59.84 -5.6 59.74 -5.59 59.64963 -5.59279 L 58.68168 -5.58059 L 58.57066 -5.57795 C 58.51 -5.58 58.46 -5.57 58.43951 -5.57166 L 58.42976 -5.56836 L 58.44793 -5.56498 L 58.51835 -5.56183 L 58.61085 -5.55873 L 159.68655 -3.14371 L 159.82774 -3.14122 L 159.97932 -3.13907 L 160.15978 -3.1377 L 160.3448 -3.13681 C 160.46 -3.14 160.59 -3.14 160.733 -3.13695 L 160.90828 -3.13807 L 161.89377 -3.14985 C 162.01 -3.15 162.13 -3.15 162.25699 -3.15265 L 162.44752 -3.1531 L 162.63936 -3.15293 L 162.8221 -3.1518 C 162.94 -3.15 163.06 -3.15 163.15641 -3.14853 L 163.28949 -3.14594 L 212.52161 -1.96962 L 204.40661 -1.86913 L 192.59747 -1.65083 L 194.54291 -1.60434 L 162.89444 -1.21242 L 165.82137 -1.14248 L 44.12243 0.3646 L 47.91985 0.45533 L 8.93461 0.93811 L 8.06412 0.91731 L 6.8939 0.88921 C 4.25 0.83 -0.56 0.8 -4.80539 0.82893 L -5.38284 0.83333 C -5.68 0.84 -5.99 0.84 -6.31865 0.83835 L -57.37353 -0.38152 L -58.99977 -0.36138 L -110.99606 -1.60372 L -107.74925 -1.64392 L -108.92937 -1.67212 L -112.17034 -1.63177 L -164.15332 -2.87385" />
    <path d="M -112.17034 4.36734 L -112.17034 -1.63177" />
    <path d="M -112.17034 4.36734 L -164.15332 3.12527" />
    <path d="M -213.59948 1.88484 L -213.59948 -4.11427" />
    <path d="M -164.15332 3.06627 L -213.59948 1.88484" />
    <path d="M -110.99606 4.35272 L -112.17034 4.36734" />
    <path d="M -58.99977 5.63773 L -110.99606 4.3954 L -110.99606 -1.60372" />
    <path d="M -57.37353 5.61759 L -58.99977 5.63773 L -58.99977 -0.36138" />
    <path d="M -213.59948 1.62016 L -214.25451 1.60451 L -214.25451 -4.39461" />
    <path d="M -6.31865 6.83746 L -57.37353 5.61759 L -57.37353 -0.38152" />
    <path d="M -5.38284 6.83244 C -5.68 6.84 -5.99 6.84 -6.31865 6.83746 L -6.31865 0.83835" />
    <path d="M -4.80539 6.82804 L -5.38284 6.83244 L -5.38284 0.83333" />
    <path d="M 6.8939 6.88832 C 4.25 6.82 -0.56 6.8 -4.80539 6.82804 L -4.80539 0.82893" />
    <path d="M 8.06412 6.91643 L 6.8939 6.88832 L 6.8939 0.88921" />
    <path d="M 8.93461 6.93722 L 8.06412 6.91643 L 8.06412 0.91731" />
    <path d="M 47.91985 6.45444 L 8.93461 6.93722 L 8.93461 0.93811" />
    <path d="M 165.82137 4.85663 L 47.91985 6.31668" />
    <path d="M 194.54291 4.39477 L 165.82137 4.75045" />
    <path d="M 204.40661 4.12999 L 194.54291 4.31232" />
    <path d="M 212.52161 4.02949 L 204.40661 4.12999 L 204.40661 -1.86913" />
    <path d="M 10.71127 -2.65531 L -15.58065 -3.28351 L -15.58065 -4.28336 L 10.71127 -3.65516 L 15.58065 -3.71546 L -10.71127 -4.34366 L -15.58065 -4.28336" />
    <path d="M 15.58065 -2.71561 L 10.71127 -2.65531 L 10.71127 -3.65516" />
    <path d="M -108.92937 -1.62931 L -108.92937 -1.67212" />
    <path d="M -213.38402 -4.12053 L -213.38402 -4.37381" />
    <path d="M 47.91985 6.45444 L 47.91985 0.45533" />
    <path d="M 165.82137 4.85663 L 165.82137 -1.14248" />
    <path d="M 194.54291 4.39477 L 194.54291 -1.60434" />
    <path d="M 60.05053 -5.52434 L 60.05053 -5.60412" />
    <path d="M 59.99891 -5.52557 L 59.99891 -5.60093" />
    <path d="M 212.52161 4.02949 L 212.52161 -1.96962" />
    <path d="M 59.91938 -5.52747 L 59.91938 -5.59783" />
    <path d="M 59.64963 -5.53392 L 59.64963 -5.59279" />
    <path d="M 58.68168 -5.55704 L 58.68168 -5.58059" />
    <path d="M 58.57066 -5.56008 L 58.57066 -5.57795" />
    <path d="M 58.43951 -5.56655 L 58.43951 -5.57166" />
    <path d="M 15.58065 -2.71561 L 15.58065 -3.71546" />
    <path d="M -212.20569 -4.14474 L -212.20569 -4.3458" />
</svg>